<svg xmlns="http://www.w3.org/2000/svg" width="10.512" height="9.311" viewBox="0 0 10.512 9.311">
  <g id="Grupo_6" data-name="Grupo 6" transform="translate(0 0)">
    <path id="Trazado_20" data-name="Trazado 20" d="M-379.43,185.612a.3.3,0,0,0-.231-.108h-7.883l-.153-1.033a.907.907,0,0,0-.891-.769h-1.284v.6h1.284a.3.3,0,0,1,.3.256l1.049,7.084a.907.907,0,0,0,.891.769h.738a.9.9,0,0,0,1.14.551.9.9,0,0,0,.551-.551h1.312a.9.9,0,0,0,1.15.549.9.9,0,0,0,.549-1.15.9.9,0,0,0-1.15-.549.9.9,0,0,0-.549.549h-1.312a.9.9,0,0,0-1.14-.551.9.9,0,0,0-.551.551h-.738a.3.3,0,0,1-.3-.257l-.1-.645h6.182a.3.3,0,0,0,.3-.245l.9-4.806A.3.3,0,0,0-379.43,185.612Zm-2.334,6.2a.3.3,0,0,1,.3.3.3.3,0,0,1-.3.3.3.3,0,0,1-.3-.3A.3.3,0,0,1-381.764,191.811Zm-3,0a.3.3,0,0,1,.3.3.3.3,0,0,1-.3.3.3.3,0,0,1-.3-.3A.3.3,0,0,1-384.767,191.811Zm3.956-1.5h-6.021l-.623-4.2h7.434Z" transform="translate(389.873 -183.702)" fill="#fff"/>
  </g>
</svg>
