<svg width="147" height="147" viewBox="0 0 147 147" fill="none" xmlns="http://www.w3.org/2000/svg">
<path d="M73.4999 130.514C104.988 130.514 130.514 104.988 130.514 73.5C130.514 42.012 104.988 16.486 73.4999 16.486C42.0119 16.486 16.4858 42.012 16.4858 73.5C16.4858 104.988 42.0119 130.514 73.4999 130.514Z" fill="white"/>
<path d="M73.4999 130.514C104.988 130.514 130.514 104.988 130.514 73.5C130.514 42.012 104.988 16.486 73.4999 16.486C42.0119 16.486 16.4858 42.012 16.4858 73.5C16.4858 104.988 42.0119 130.514 73.4999 130.514Z" stroke="white"/>
<path d="M59.0747 99.6615L88.3325 129.14C112.564 122.63 130.514 100.385 130.514 73.7998C130.514 73.2573 130.514 72.7147 130.514 72.1722L107.539 50.8318L59.0747 99.6615Z" fill="#17A246"/>
<path d="M74.9385 86.2697C77.4564 88.7876 77.4564 93.1041 74.9385 95.6221L69.7227 100.838C67.2047 103.356 62.8882 103.356 60.3702 100.838L37.5286 77.8165C35.0106 75.2985 35.0106 70.982 37.5286 68.464L42.7444 63.2482C45.2624 60.7302 49.5789 60.7302 52.0969 63.2482L74.9385 86.2697Z" fill="#28D563"/>
<path d="M94.9024 46.5218C97.4203 44.0038 101.737 44.0038 104.255 46.5218L109.471 51.7376C111.989 54.2555 111.989 58.5721 109.471 61.09L69.9025 100.478C67.3846 102.996 63.068 102.996 60.5501 100.478L55.3343 95.2625C52.8163 92.7445 52.8163 88.428 55.3343 85.91L94.9024 46.5218Z" fill="#28D563"/>
</svg>
